<svg width="102" height="94" viewBox="0 0 102 94" fill="none" xmlns="http://www.w3.org/2000/svg">
<path d="M10.032 71.24C8.752 71.24 7.56 71.032 6.456 70.616C5.368 70.184 4.416 69.584 3.6 68.816C2.8 68.032 2.176 67.112 1.728 66.056C1.28 65 1.056 63.848 1.056 62.6C1.056 61.352 1.28 60.2 1.728 59.144C2.176 58.088 2.808 57.176 3.624 56.408C4.44 55.624 5.392 55.024 6.48 54.608C7.568 54.176 8.76 53.96 10.056 53.96C11.432 53.96 12.688 54.2 13.824 54.68C14.96 55.144 15.92 55.84 16.704 56.768L14.688 58.664C14.08 58.008 13.4 57.52 12.648 57.2C11.896 56.864 11.08 56.696 10.2 56.696C9.32 56.696 8.512 56.84 7.776 57.128C7.056 57.416 6.424 57.824 5.88 58.352C5.352 58.88 4.936 59.504 4.632 60.224C4.344 60.944 4.2 61.736 4.2 62.6C4.2 63.464 4.344 64.256 4.632 64.976C4.936 65.696 5.352 66.32 5.88 66.848C6.424 67.376 7.056 67.784 7.776 68.072C8.512 68.36 9.32 68.504 10.2 68.504C11.08 68.504 11.896 68.344 12.648 68.024C13.4 67.688 14.08 67.184 14.688 66.512L16.704 68.432C15.92 69.344 14.96 70.04 13.824 70.52C12.688 71 11.424 71.24 10.032 71.24ZM27.1843 71V68.408L27.0163 67.856V63.32C27.0163 62.44 26.7523 61.76 26.2243 61.28C25.6963 60.784 24.8963 60.536 23.8243 60.536C23.1043 60.536 22.3923 60.648 21.6883 60.872C21.0003 61.096 20.4163 61.408 19.9363 61.808L18.7603 59.624C19.4483 59.096 20.2643 58.704 21.2083 58.448C22.1683 58.176 23.1603 58.04 24.1843 58.04C26.0403 58.04 27.4723 58.488 28.4803 59.384C29.5043 60.264 30.0163 61.632 30.0163 63.488V71H27.1843ZM23.1523 71.168C22.1923 71.168 21.3523 71.008 20.6323 70.688C19.9123 70.352 19.3523 69.896 18.9523 69.32C18.5683 68.728 18.3763 68.064 18.3763 67.328C18.3763 66.608 18.5443 65.96 18.8803 65.384C19.2323 64.808 19.8003 64.352 20.5843 64.016C21.3683 63.68 22.4083 63.512 23.7043 63.512H27.4243V65.504H23.9203C22.8963 65.504 22.2083 65.672 21.8563 66.008C21.5043 66.328 21.3283 66.728 21.3283 67.208C21.3283 67.752 21.5443 68.184 21.9763 68.504C22.4083 68.824 23.0083 68.984 23.7763 68.984C24.5123 68.984 25.1683 68.816 25.7443 68.48C26.3363 68.144 26.7603 67.648 27.0163 66.992L27.5203 68.792C27.2323 69.544 26.7123 70.128 25.9603 70.544C25.2243 70.96 24.2883 71.168 23.1523 71.168ZM37.8264 71.168C36.7544 71.168 35.7224 71.032 34.7304 70.76C33.7544 70.472 32.9784 70.128 32.4024 69.728L33.5544 67.448C34.1304 67.816 34.8184 68.12 35.6184 68.36C36.4184 68.6 37.2184 68.72 38.0184 68.72C38.9624 68.72 39.6424 68.592 40.0584 68.336C40.4904 68.08 40.7064 67.736 40.7064 67.304C40.7064 66.952 40.5624 66.688 40.2744 66.512C39.9864 66.32 39.6104 66.176 39.1464 66.08C38.6824 65.984 38.1624 65.896 37.5864 65.816C37.0264 65.736 36.4584 65.632 35.8824 65.504C35.3224 65.36 34.8104 65.16 34.3464 64.904C33.8824 64.632 33.5064 64.272 33.2184 63.824C32.9304 63.376 32.7864 62.784 32.7864 62.048C32.7864 61.232 33.0184 60.528 33.4824 59.936C33.9464 59.328 34.5944 58.864 35.4264 58.544C36.2744 58.208 37.2744 58.04 38.4264 58.04C39.2904 58.04 40.1624 58.136 41.0424 58.328C41.9224 58.52 42.6504 58.792 43.2264 59.144L42.0744 61.424C41.4664 61.056 40.8504 60.808 40.2264 60.68C39.6184 60.536 39.0104 60.464 38.4024 60.464C37.4904 60.464 36.8104 60.6 36.3624 60.872C35.9304 61.144 35.7144 61.488 35.7144 61.904C35.7144 62.288 35.8584 62.576 36.1464 62.768C36.4344 62.96 36.8104 63.112 37.2744 63.224C37.7384 63.336 38.2504 63.432 38.8104 63.512C39.3864 63.576 39.9544 63.68 40.5144 63.824C41.0744 63.968 41.5864 64.168 42.0504 64.424C42.5304 64.664 42.9144 65.008 43.2024 65.456C43.4904 65.904 43.6344 66.488 43.6344 67.208C43.6344 68.008 43.3944 68.704 42.9144 69.296C42.4504 69.888 41.7864 70.352 40.9224 70.688C40.0584 71.008 39.0264 71.168 37.8264 71.168ZM51.042 71.168C49.634 71.168 48.546 70.808 47.778 70.088C47.01 69.352 46.626 68.272 46.626 66.848V55.352H49.626V66.776C49.626 67.384 49.778 67.856 50.082 68.192C50.402 68.528 50.842 68.696 51.402 68.696C52.074 68.696 52.634 68.52 53.082 68.168L53.922 70.304C53.57 70.592 53.138 70.808 52.626 70.952C52.114 71.096 51.586 71.168 51.042 71.168ZM44.514 60.68V58.28H53.058V60.68H44.514ZM61.992 71.168C60.568 71.168 59.32 70.888 58.248 70.328C57.192 69.752 56.368 68.968 55.776 67.976C55.2 66.984 54.912 65.856 54.912 64.592C54.912 63.312 55.192 62.184 55.752 61.208C56.328 60.216 57.112 59.44 58.104 58.88C59.112 58.32 60.256 58.04 61.536 58.04C62.784 58.04 63.896 58.312 64.872 58.856C65.848 59.4 66.616 60.168 67.176 61.16C67.736 62.152 68.016 63.32 68.016 64.664C68.016 64.792 68.008 64.936 67.992 65.096C67.992 65.256 67.984 65.408 67.968 65.552H57.288V63.56H66.384L65.208 64.184C65.224 63.448 65.072 62.8 64.752 62.24C64.432 61.68 63.992 61.24 63.432 60.92C62.888 60.6 62.256 60.44 61.536 60.44C60.8 60.44 60.152 60.6 59.592 60.92C59.048 61.24 58.616 61.688 58.296 62.264C57.992 62.824 57.84 63.488 57.84 64.256V64.736C57.84 65.504 58.016 66.184 58.368 66.776C58.72 67.368 59.216 67.824 59.856 68.144C60.496 68.464 61.232 68.624 62.064 68.624C62.784 68.624 63.432 68.512 64.008 68.288C64.584 68.064 65.096 67.712 65.544 67.232L67.152 69.08C66.576 69.752 65.848 70.272 64.968 70.64C64.104 70.992 63.112 71.168 61.992 71.168ZM70.8977 71V53.192H73.8977V71H70.8977ZM77.1872 65.576V63.08H83.7872V65.576H77.1872ZM86.445 65.576V63.08H93.045V65.576H86.445ZM10.032 92.24C8.752 92.24 7.56 92.032 6.456 91.616C5.368 91.184 4.416 90.584 3.6 89.816C2.8 89.032 2.176 88.112 1.728 87.056C1.28 86 1.056 84.848 1.056 83.6C1.056 82.352 1.28 81.2 1.728 80.144C2.176 79.088 2.808 78.176 3.624 77.408C4.44 76.624 5.392 76.024 6.48 75.608C7.568 75.176 8.76 74.96 10.056 74.96C11.432 74.96 12.688 75.2 13.824 75.68C14.96 76.144 15.92 76.84 16.704 77.768L14.688 79.664C14.08 79.008 13.4 78.52 12.648 78.2C11.896 77.864 11.08 77.696 10.2 77.696C9.32 77.696 8.512 77.84 7.776 78.128C7.056 78.416 6.424 78.824 5.88 79.352C5.352 79.88 4.936 80.504 4.632 81.224C4.344 81.944 4.2 82.736 4.2 83.6C4.2 84.464 4.344 85.256 4.632 85.976C4.936 86.696 5.352 87.32 5.88 87.848C6.424 88.376 7.056 88.784 7.776 89.072C8.512 89.36 9.32 89.504 10.2 89.504C11.08 89.504 11.896 89.344 12.648 89.024C13.4 88.688 14.08 88.184 14.688 87.512L16.704 89.432C15.92 90.344 14.96 91.04 13.824 91.52C12.688 92 11.424 92.24 10.032 92.24ZM19.4055 92V79.184H22.2615V82.712L21.9255 81.68C22.3095 80.816 22.9095 80.16 23.7255 79.712C24.5575 79.264 25.5895 79.04 26.8215 79.04V81.896C26.6935 81.864 26.5735 81.848 26.4615 81.848C26.3495 81.832 26.2375 81.824 26.1255 81.824C24.9895 81.824 24.0855 82.16 23.4135 82.832C22.7415 83.488 22.4055 84.472 22.4055 85.784V92H19.4055ZM35.2733 92.168C33.8493 92.168 32.6013 91.888 31.5293 91.328C30.4733 90.752 29.6493 89.968 29.0573 88.976C28.4813 87.984 28.1933 86.856 28.1933 85.592C28.1933 84.312 28.4733 83.184 29.0333 82.208C29.6093 81.216 30.3933 80.44 31.3853 79.88C32.3933 79.32 33.5373 79.04 34.8173 79.04C36.0653 79.04 37.1773 79.312 38.1533 79.856C39.1293 80.4 39.8973 81.168 40.4573 82.16C41.0173 83.152 41.2973 84.32 41.2973 85.664C41.2973 85.792 41.2893 85.936 41.2733 86.096C41.2733 86.256 41.2653 86.408 41.2493 86.552H30.5693V84.56H39.6653L38.4893 85.184C38.5053 84.448 38.3533 83.8 38.0333 83.24C37.7133 82.68 37.2733 82.24 36.7133 81.92C36.1693 81.6 35.5373 81.44 34.8173 81.44C34.0813 81.44 33.4333 81.6 32.8733 81.92C32.3293 82.24 31.8973 82.688 31.5773 83.264C31.2733 83.824 31.1213 84.488 31.1213 85.256V85.736C31.1213 86.504 31.2973 87.184 31.6493 87.776C32.0013 88.368 32.4973 88.824 33.1373 89.144C33.7773 89.464 34.5133 89.624 35.3453 89.624C36.0653 89.624 36.7133 89.512 37.2893 89.288C37.8653 89.064 38.3773 88.712 38.8253 88.232L40.4333 90.08C39.8573 90.752 39.1293 91.272 38.2493 91.64C37.3853 91.992 36.3933 92.168 35.2733 92.168ZM51.7234 92V89.408L51.5554 88.856V84.32C51.5554 83.44 51.2914 82.76 50.7634 82.28C50.2354 81.784 49.4354 81.536 48.3634 81.536C47.6434 81.536 46.9314 81.648 46.2274 81.872C45.5394 82.096 44.9554 82.408 44.4754 82.808L43.2994 80.624C43.9874 80.096 44.8034 79.704 45.7474 79.448C46.7074 79.176 47.6994 79.04 48.7234 79.04C50.5794 79.04 52.0114 79.488 53.0194 80.384C54.0434 81.264 54.5554 82.632 54.5554 84.488V92H51.7234ZM47.6914 92.168C46.7314 92.168 45.8914 92.008 45.1714 91.688C44.4514 91.352 43.8914 90.896 43.4914 90.32C43.1074 89.728 42.9154 89.064 42.9154 88.328C42.9154 87.608 43.0834 86.96 43.4194 86.384C43.7714 85.808 44.3394 85.352 45.1234 85.016C45.9074 84.68 46.9474 84.512 48.2434 84.512H51.9634V86.504H48.4594C47.4354 86.504 46.7474 86.672 46.3954 87.008C46.0434 87.328 45.8674 87.728 45.8674 88.208C45.8674 88.752 46.0834 89.184 46.5154 89.504C46.9474 89.824 47.5474 89.984 48.3154 89.984C49.0514 89.984 49.7074 89.816 50.2834 89.48C50.8754 89.144 51.2994 88.648 51.5554 87.992L52.0594 89.792C51.7714 90.544 51.2514 91.128 50.4994 91.544C49.7634 91.96 48.8274 92.168 47.6914 92.168ZM63.2295 92.168C61.8215 92.168 60.7335 91.808 59.9655 91.088C59.1975 90.352 58.8135 89.272 58.8135 87.848V76.352H61.8135V87.776C61.8135 88.384 61.9655 88.856 62.2695 89.192C62.5895 89.528 63.0295 89.696 63.5895 89.696C64.2615 89.696 64.8215 89.52 65.2695 89.168L66.1095 91.304C65.7575 91.592 65.3255 91.808 64.8135 91.952C64.3015 92.096 63.7735 92.168 63.2295 92.168ZM56.7015 81.68V79.28H65.2455V81.68H56.7015ZM68.5774 92V79.184H71.5774V92H68.5774ZM70.0894 77.072C69.5294 77.072 69.0654 76.896 68.6974 76.544C68.3454 76.192 68.1694 75.768 68.1694 75.272C68.1694 74.76 68.3454 74.336 68.6974 74C69.0654 73.648 69.5294 73.472 70.0894 73.472C70.6494 73.472 71.1054 73.64 71.4574 73.976C71.8254 74.296 72.0094 74.704 72.0094 75.2C72.0094 75.728 71.8334 76.176 71.4814 76.544C71.1294 76.896 70.6654 77.072 70.0894 77.072ZM78.9229 92L73.4269 79.184H76.5469L81.2749 90.488H79.7389L84.6349 79.184H87.5149L82.0189 92H78.9229ZM95.0623 92.168C93.6383 92.168 92.3903 91.888 91.3183 91.328C90.2623 90.752 89.4383 89.968 88.8463 88.976C88.2703 87.984 87.9823 86.856 87.9823 85.592C87.9823 84.312 88.2623 83.184 88.8223 82.208C89.3983 81.216 90.1823 80.44 91.1743 79.88C92.1823 79.32 93.3263 79.04 94.6063 79.04C95.8543 79.04 96.9663 79.312 97.9423 79.856C98.9183 80.4 99.6863 81.168 100.246 82.16C100.806 83.152 101.086 84.32 101.086 85.664C101.086 85.792 101.078 85.936 101.062 86.096C101.062 86.256 101.054 86.408 101.038 86.552H90.3583V84.56H99.4543L98.2783 85.184C98.2943 84.448 98.1423 83.8 97.8223 83.24C97.5023 82.68 97.0623 82.24 96.5023 81.92C95.9583 81.6 95.3263 81.44 94.6063 81.44C93.8703 81.44 93.2223 81.6 92.6623 81.92C92.1183 82.24 91.6863 82.688 91.3663 83.264C91.0623 83.824 90.9103 84.488 90.9103 85.256V85.736C90.9103 86.504 91.0863 87.184 91.4383 87.776C91.7903 88.368 92.2863 88.824 92.9263 89.144C93.5663 89.464 94.3023 89.624 95.1343 89.624C95.8543 89.624 96.5023 89.512 97.0783 89.288C97.6543 89.064 98.1663 88.712 98.6143 88.232L100.222 90.08C99.6463 90.752 98.9183 91.272 98.0383 91.64C97.1743 91.992 96.1823 92.168 95.0623 92.168Z" fill="url(#paint0_linear_5_187)"/>
<path fill-rule="evenodd" clip-rule="evenodd" d="M37 0C42.5228 0 47 4.47715 47 10V0H57C62.5228 0 67 4.47715 67 10C67 15.5228 62.5228 20 57 20C62.5228 20 67 24.4772 67 30C67 32.7423 65.8961 35.2268 64.1085 37.0334L64.0711 37.0711L64.0379 37.1041C62.2309 38.8943 59.7446 40 57 40C54.2741 40 51.8029 38.9093 49.999 37.1405C49.9756 37.1175 49.9522 37.0943 49.9289 37.0711C49.907 37.0492 49.8852 37.0272 49.8635 37.0051C48.0924 35.2009 47 32.728 47 30C47 35.5228 42.5228 40 37 40C31.4771 40 27 35.5228 27 30V20H37C31.4771 20 27 15.5228 27 10C27 4.47715 31.4771 0 37 0ZM45 10C45 14.4183 41.4183 18 37 18V2C41.4183 2 45 5.58172 45 10ZM65 30C65 25.5817 61.4183 22 57 22C52.5817 22 49 25.5817 49 30H65ZM29 22V30C29 34.4183 32.5817 38 37 38C41.4183 38 45 34.4183 45 30V22H29ZM49 18V2H57C61.4183 2 65 5.58172 65 10C65 14.4183 61.4183 18 57 18H49Z" fill="url(#paint1_linear_5_187)"/>
<defs>
<linearGradient id="paint0_linear_5_187" x1="51.4753" y1="55.6955" x2="52.2829" y2="96.6827" gradientUnits="userSpaceOnUse">
<stop stop-color="#0B3948"/>
<stop offset="1" stop-color="#1D6F8A"/>
</linearGradient>
<linearGradient id="paint1_linear_5_187" x1="47.1864" y1="3.51956" x2="49.0506" y2="42.4809" gradientUnits="userSpaceOnUse">
<stop stop-color="#0B3948"/>
<stop offset="1" stop-color="#1D6F8A"/>
</linearGradient>
</defs>
</svg>
